<svg width="0" height="0" class="hidden">
  <symbol xmlns="http://www.w3.org/2000/svg" viewBox="0 0 96.124 96.123" id="facebook">
    <path d="M72.089.02L59.624 0C45.62 0 36.57 9.285 36.57 23.656v10.907H24.037a1.96 1.96 0 0 0-1.96 1.961v15.803a1.96 1.96 0 0 0 1.96 1.96H36.57v39.876a1.96 1.96 0 0 0 1.96 1.96h16.352a1.96 1.96 0 0 0 1.96-1.96V54.287h14.654a1.96 1.96 0 0 0 1.96-1.96l.006-15.803a1.963 1.963 0 0 0-1.961-1.961H56.842v-9.246c0-4.444 1.059-6.7 6.848-6.7l8.397-.003a1.96 1.96 0 0 0 1.959-1.96V1.98A1.96 1.96 0 0 0 72.089.02z"></path>
  </symbol>
  <symbol xmlns="http://www.w3.org/2000/svg" viewBox="0 0 438.536 438.536" id="instagram">
    <path d="M421.981 16.562C410.941 5.519 397.711 0 382.298 0H56.248C40.83 0 27.604 5.521 16.561 16.562 5.52 27.6.001 40.828.001 56.243V382.29c0 15.413 5.518 28.644 16.56 39.683 11.043 11.04 24.272 16.563 39.687 16.563h326.046c15.41 0 28.644-5.523 39.684-16.563 11.043-11.039 16.557-24.27 16.557-39.683V56.243c-.001-15.418-5.514-28.639-16.554-39.681zM157.462 158.025c17.224-16.652 37.924-24.982 62.097-24.982 24.36 0 45.153 8.33 62.381 24.982 17.228 16.655 25.837 36.785 25.837 60.386 0 23.598-8.609 43.729-25.837 60.379-17.228 16.659-38.014 24.988-62.381 24.988-24.172 0-44.87-8.336-62.097-24.988-17.228-16.652-25.841-36.781-25.841-60.379 0-23.601 8.613-43.73 25.841-60.386zm231.403 212.564c0 4.945-1.718 9.083-5.141 12.416-3.433 3.33-7.519 4.996-12.282 4.996h-305.2c-4.948 0-9.091-1.666-12.419-4.996-3.333-3.326-4.998-7.471-4.998-12.416V185.575H89.08c-3.805 11.993-5.708 24.462-5.708 37.402 0 36.553 13.322 67.715 39.969 93.511 26.65 25.786 58.721 38.685 96.217 38.685 24.744 0 47.583-5.903 68.527-17.703 20.937-11.807 37.486-27.839 49.676-48.112 12.183-20.272 18.274-42.4 18.274-66.38 0-12.94-1.91-25.406-5.715-37.402h38.547V370.59h-.002zm0-254.963c0 5.52-1.903 10.184-5.716 13.99-3.805 3.809-8.466 5.711-13.989 5.711h-49.676c-5.517 0-10.185-1.903-13.99-5.711-3.806-3.806-5.708-8.47-5.708-13.99V68.522c0-5.33 1.902-9.945 5.708-13.848 3.806-3.901 8.474-5.854 13.99-5.854h49.676c5.523 0 10.185 1.952 13.989 5.854 3.812 3.903 5.716 8.518 5.716 13.848v47.104z"></path>
  </symbol>
  <symbol xmlns="http://www.w3.org/2000/svg" viewBox="0 0 10.10 449.956" id="twitter">
    <path d="M449.956 85.657c-17.702 7.614-35.408 12.369-53.102 14.279 19.985-11.991 33.503-28.931 40.546-50.819-18.281 10.847-37.787 18.268-58.532 22.267-18.274-19.414-40.73-29.125-67.383-29.125-25.502 0-47.246 8.992-65.24 26.98-17.984 17.987-26.977 39.731-26.977 65.235 0 6.851.76 13.896 2.284 21.128-37.688-1.903-73.042-11.372-106.068-28.407C82.46 110.158 54.433 87.46 31.403 59.101c-8.375 14.272-12.564 29.787-12.564 46.536 0 15.798 3.711 30.456 11.138 43.97 7.422 13.512 17.417 24.455 29.98 32.831-14.849-.572-28.743-4.475-41.684-11.708v1.142c0 22.271 6.995 41.824 20.983 58.674 13.99 16.848 31.645 27.453 52.961 31.833a95.543 95.543 0 0 1-24.269 3.138c-5.33 0-11.136-.475-17.416-1.42 5.9 18.459 16.75 33.633 32.546 45.535 15.799 11.896 33.691 18.028 53.677 18.418-33.498 26.262-71.66 39.393-114.486 39.393-8.186 0-15.607-.373-22.27-1.139 42.827 27.596 90.03 41.394 141.612 41.394 32.738 0 63.478-5.181 92.21-15.557 28.746-10.369 53.297-24.267 73.665-41.686 20.362-17.415 37.925-37.448 52.674-60.097 14.75-22.651 25.738-46.298 32.977-70.946 7.23-24.653 10.848-49.344 10.848-74.092 0-5.33-.096-9.325-.287-11.991 18.087-13.127 33.504-29.023 46.258-47.672z"></path>
  </symbol>
</svg>
